<svg width="66" height="66" viewBox="0 0 66 66" fill="none" xmlns="http://www.w3.org/2000/svg">
<g id="fluent:payment-32-regular">
<path id="Vector" d="M4.125 19.5938C4.125 17.1322 5.10284 14.7715 6.84342 13.0309C8.58399 11.2903 10.9447 10.3125 13.4062 10.3125H52.5938C55.0553 10.3125 57.416 11.2903 59.1566 13.0309C60.8972 14.7715 61.875 17.1322 61.875 19.5938V46.4062C61.875 48.8678 60.8972 51.2285 59.1566 52.9691C57.416 54.7097 55.0553 55.6875 52.5938 55.6875H13.4062C10.9447 55.6875 8.58399 54.7097 6.84342 52.9691C5.10284 51.2285 4.125 48.8678 4.125 46.4062V19.5938ZM13.4062 14.4375C12.0387 14.4375 10.7272 14.9807 9.76023 15.9477C8.79325 16.9147 8.25 18.2262 8.25 19.5938V22.6875H57.75V19.5938C57.75 18.2262 57.2068 16.9147 56.2398 15.9477C55.2728 14.9807 53.9613 14.4375 52.5938 14.4375H13.4062ZM8.25 46.4062C8.25 47.7738 8.79325 49.0853 9.76023 50.0523C10.7272 51.0193 12.0387 51.5625 13.4062 51.5625H52.5938C53.9613 51.5625 55.2728 51.0193 56.2398 50.0523C57.2068 49.0853 57.75 47.7738 57.75 46.4062V26.8125H8.25V46.4062ZM43.3125 39.1875H49.5C50.047 39.1875 50.5716 39.4048 50.9584 39.7916C51.3452 40.1784 51.5625 40.703 51.5625 41.25C51.5625 41.797 51.3452 42.3216 50.9584 42.7084C50.5716 43.0952 50.047 43.3125 49.5 43.3125H43.3125C42.7655 43.3125 42.2409 43.0952 41.8541 42.7084C41.4673 42.3216 41.25 41.797 41.25 41.25C41.25 40.703 41.4673 40.1784 41.8541 39.7916C42.2409 39.4048 42.7655 39.1875 43.3125 39.1875Z" fill="white"/>
</g>
</svg>
