<svg width="34" height="34" viewBox="0 0 34 34" fill="none" xmlns="http://www.w3.org/2000/svg">
<g id="material-symbols:check-circle-rounded">
<path id="Vector" d="M15.0167 19.5499L11.9708 16.5041C11.7111 16.2444 11.3806 16.1145 10.9792 16.1145C10.5778 16.1145 10.2472 16.2444 9.98749 16.5041C9.72777 16.7638 9.59791 17.0944 9.59791 17.4958C9.59791 17.8971 9.72777 18.2277 9.98749 18.4874L14.025 22.5249C14.3083 22.8083 14.6389 22.9499 15.0167 22.9499C15.3944 22.9499 15.725 22.8083 16.0083 22.5249L24.0125 14.5208C24.2722 14.261 24.4021 13.9305 24.4021 13.5291C24.4021 13.1277 24.2722 12.7971 24.0125 12.5374C23.7528 12.2777 23.4222 12.1478 23.0208 12.1478C22.6194 12.1478 22.2889 12.2777 22.0292 12.5374L15.0167 19.5499ZM17 31.1666C15.0403 31.1666 13.1986 30.7945 11.475 30.0503C9.75138 29.306 8.25208 28.2969 6.97708 27.0228C5.70208 25.7478 4.69294 24.2485 3.94966 22.5249C3.20638 20.8013 2.83427 18.9596 2.83333 16.9999C2.83333 15.0402 3.20544 13.1985 3.94966 11.4749C4.69388 9.75131 5.70302 8.252 6.97708 6.977C8.25208 5.702 9.75138 4.69286 11.475 3.94959C13.1986 3.20631 15.0403 2.8342 17 2.83325C18.9597 2.83325 20.8014 3.20536 22.525 3.94959C24.2486 4.69381 25.7479 5.70295 27.0229 6.977C28.2979 8.252 29.3075 9.75131 30.0517 11.4749C30.796 13.1985 31.1676 15.0402 31.1667 16.9999C31.1667 18.9596 30.7945 20.8013 30.0503 22.5249C29.3061 24.2485 28.297 25.7478 27.0229 27.0228C25.7479 28.2978 24.2486 29.3074 22.525 30.0517C20.8014 30.7959 18.9597 31.1675 17 31.1666Z" fill="#8200E9"/>
</g>
</svg>
