<svg width="66" height="57" viewBox="0 0 66 57" fill="none" xmlns="http://www.w3.org/2000/svg">
<path id="Vector" d="M26.4 0.639771C22.737 0.639771 19.8 3.1228 19.8 6.21961V14.5894C19.8 17.6862 22.737 20.1692 26.4 20.1692H29.7V25.749H0V31.3289H13.2V36.9087H9.9C6.237 36.9087 3.3 39.3918 3.3 42.4886V50.8583C3.3 53.9551 6.237 56.4382 9.9 56.4382H23.1C26.763 56.4382 29.7 53.9551 29.7 50.8583V42.4886C29.7 39.3918 26.763 36.9087 23.1 36.9087H19.8V31.3289H46.2V36.9087H42.9C39.237 36.9087 36.3 39.3918 36.3 42.4886V50.8583C36.3 53.9551 39.237 56.4382 42.9 56.4382H56.1C59.763 56.4382 62.7 53.9551 62.7 50.8583V42.4886C62.7 39.3918 59.763 36.9087 56.1 36.9087H52.8V31.3289H66V25.749H36.3V20.1692H39.6C43.263 20.1692 46.2 17.6862 46.2 14.5894V6.21961C46.2 3.1228 43.263 0.639771 39.6 0.639771H26.4ZM26.4 6.21961H39.6V14.5894H26.4V6.21961ZM9.9 42.4886H23.1V50.8583H9.9V42.4886ZM42.9 42.4886H56.1V50.8583H42.9V42.4886Z" fill="white"/>
</svg>
