<svg width="59" height="59" viewBox="0 0 59 59" fill="none" xmlns="http://www.w3.org/2000/svg">
<g id="mdi:instagram">
<path id="Vector" d="M19.1541 5.02832H39.5344C47.2983 5.02832 53.6065 11.3365 53.6065 19.1005V39.4808C53.6065 43.2129 52.1239 46.7922 49.4849 49.4313C46.8459 52.0703 43.2666 53.5529 39.5344 53.5529H19.1541C11.3901 53.5529 5.08194 47.2447 5.08194 39.4808V19.1005C5.08194 15.3683 6.56454 11.789 9.20357 9.14995C11.8426 6.51092 15.4219 5.02832 19.1541 5.02832ZM18.6688 9.88078C16.3523 9.88078 14.1307 10.801 12.4927 12.439C10.8546 14.0771 9.9344 16.2987 9.9344 18.6152V39.966C9.9344 44.7942 13.8406 48.7005 18.6688 48.7005H40.0196C42.3362 48.7005 44.5578 47.7802 46.1958 46.1422C47.8338 44.5042 48.7541 42.2825 48.7541 39.966V18.6152C48.7541 13.787 44.8478 9.88078 40.0196 9.88078H18.6688ZM42.0819 13.5201C42.8863 13.5201 43.6577 13.8396 44.2264 14.4084C44.7952 14.9772 45.1147 15.7486 45.1147 16.5529C45.1147 17.3573 44.7952 18.1287 44.2264 18.6974C43.6577 19.2662 42.8863 19.5857 42.0819 19.5857C41.2776 19.5857 40.5062 19.2662 39.9374 18.6974C39.3687 18.1287 39.0492 17.3573 39.0492 16.5529C39.0492 15.7486 39.3687 14.9772 39.9374 14.4084C40.5062 13.8396 41.2776 13.5201 42.0819 13.5201ZM29.3442 17.1595C32.5616 17.1595 35.6472 18.4376 37.9223 20.7126C40.1973 22.9876 41.4754 26.0732 41.4754 29.2906C41.4754 32.508 40.1973 35.5936 37.9223 37.8686C35.6472 40.1437 32.5616 41.4218 29.3442 41.4218C26.1269 41.4218 23.0413 40.1437 20.7662 37.8686C18.4912 35.5936 17.2131 32.508 17.2131 29.2906C17.2131 26.0732 18.4912 22.9876 20.7662 20.7126C23.0413 18.4376 26.1269 17.1595 29.3442 17.1595ZM29.3442 22.0119C27.4138 22.0119 25.5624 22.7788 24.1974 24.1438C22.8324 25.5088 22.0655 27.3602 22.0655 29.2906C22.0655 31.221 22.8324 33.0724 24.1974 34.4374C25.5624 35.8024 27.4138 36.5693 29.3442 36.5693C31.2747 36.5693 33.126 35.8024 34.491 34.4374C35.8561 33.0724 36.6229 31.221 36.6229 29.2906C36.6229 27.3602 35.8561 25.5088 34.491 24.1438C33.126 22.7788 31.2747 22.0119 29.3442 22.0119Z" fill="white"/>
</g>
</svg>
