<svg width="59" height="59" viewBox="0 0 59 59" fill="none" xmlns="http://www.w3.org/2000/svg">
<g id="ri:linkedin-fill">
<path id="Vector" d="M16.838 12.6603C16.8374 13.9473 16.3255 15.1812 15.4151 16.0908C14.5046 17.0004 13.2701 17.511 11.9832 17.5103C10.6962 17.5097 9.46221 16.9978 8.55265 16.0874C7.6431 15.1769 7.13247 13.9424 7.13312 12.6555C7.13376 11.3685 7.64562 10.1345 8.55609 9.22496C9.46655 8.3154 10.7011 7.80478 11.988 7.80542C13.275 7.80606 14.5089 8.31792 15.4185 9.22839C16.3281 10.1389 16.8387 11.3734 16.838 12.6603ZM16.9836 21.1036H7.27869V51.48H16.9836V21.1036ZM32.3174 21.1036H22.661V51.48H32.2203V35.5396C32.2203 26.6596 43.7934 25.8347 43.7934 35.5396V51.48H53.377V32.24C53.377 17.2701 36.2479 17.8282 32.2203 25.1796L32.3174 21.1036Z" fill="white"/>
</g>
</svg>
