<svg width="67" height="67" viewBox="0 0 67 67" fill="none" xmlns="http://www.w3.org/2000/svg">
<g id="ic:baseline-quora">
<path id="Vector" d="M58.1922 48.1386H55.1319C54.9664 49.5723 54.029 51.3644 51.6855 51.3644C49.535 51.3644 47.991 49.8756 46.5022 47.6148C48.9608 45.7353 50.9482 43.3095 52.3072 40.5293C53.6662 37.749 54.3595 34.6906 54.3323 31.5961C54.3323 19.2996 44.1863 11.0283 33.5715 11.0283C23.0946 11.0283 12.8658 19.3823 12.8658 31.6237C12.8658 43.7548 23.0946 52.1088 33.5715 52.1088C35.3912 52.1088 37.2108 51.8607 38.9478 51.3919C40.988 54.8934 43.7175 57.8987 48.8733 57.8987C57.4202 57.8987 58.3852 50.0134 58.1922 48.1386ZM43.1661 42.1282C41.1535 39.0678 38.5894 36.6692 33.6266 36.6692C30.4284 36.6692 27.9471 37.7168 26.4031 39.0402L27.6714 41.5768C28.333 41.2735 29.0223 41.1632 29.7392 41.1632C33.4612 41.1632 35.3636 44.389 36.9903 47.5872C35.9426 47.8905 34.8122 48.0283 33.5715 48.0283C25.7138 48.0283 22.3226 42.4866 22.3226 31.6237C22.3226 20.7057 25.7138 15.1088 33.5715 15.1088C41.5395 15.1088 44.9582 20.7057 44.9582 31.6237C44.9307 35.9799 44.3792 39.5089 43.1661 42.1282Z" fill="white"/>
</g>
</svg>
