<svg width="59" height="59" viewBox="0 0 59 59" fill="none" xmlns="http://www.w3.org/2000/svg">
<g id="basil:reddit-solid">
<path id="Vector" fill-rule="evenodd" clip-rule="evenodd" d="M49.0564 4.7749C46.9383 4.7749 45.0871 5.93707 44.1118 7.65726L35.3774 5.86428C34.9657 5.77997 34.5376 5.84071 34.1657 6.03618C33.7937 6.23166 33.5009 6.54983 33.3369 6.93667C32.3397 9.28041 30.8452 12.8348 29.5957 15.8773C29.0473 17.2166 28.5427 18.4637 28.1496 19.4682C23.4961 19.6914 19.192 20.8996 15.6376 22.8261C14.9696 21.9169 14.1036 21.1716 13.1051 20.6465C12.1066 20.1215 11.0018 19.8304 9.87416 19.7953C8.74656 19.7602 7.62575 19.982 6.59654 20.444C5.56733 20.906 4.65668 21.596 3.93349 22.4619C3.2103 23.3278 2.69352 24.3468 2.42226 25.4418C2.15099 26.5368 2.13234 27.6792 2.36772 28.7826C2.6031 29.8859 3.08634 30.9212 3.78088 31.8102C4.47542 32.6992 5.36306 33.4186 6.37664 33.9139C6.16315 34.859 6.05574 35.825 6.05638 36.7939C6.05638 41.7434 8.84897 46.1154 13.1434 49.2016C17.4378 52.2902 23.3117 54.1608 29.7437 54.1608C36.1732 54.1608 42.0471 52.2902 46.3439 49.2016C50.6383 46.1154 53.4309 41.7458 53.4309 36.7939C53.4309 35.8112 53.3218 34.848 53.1107 33.9163C54.1225 33.4202 55.0084 32.7006 55.7013 31.8118C56.3942 30.9231 56.876 29.8885 57.1104 28.7862C57.3448 27.6839 57.3256 26.5427 57.0543 25.4489C56.7829 24.3551 56.2666 23.3373 55.5441 22.4724C54.8217 21.6075 53.9122 20.918 52.8842 20.4562C51.8563 19.9944 50.7368 19.7722 49.6104 19.8065C48.4839 19.8408 47.38 20.1307 46.3821 20.6542C45.3841 21.1777 44.5182 21.9212 43.8498 22.8285C40.4773 20.9967 36.4279 19.8175 32.0486 19.5094L32.9633 17.2579C33.9799 14.7807 35.1639 11.9565 36.1052 9.72926L43.4276 11.2335C43.5762 12.3148 44.0329 13.3304 44.7432 14.159C45.4534 14.9877 46.3872 15.5944 47.433 15.9066C48.4788 16.2189 49.5923 16.2234 50.6407 15.9198C51.689 15.6162 52.6278 15.0173 53.3448 14.1945C54.0619 13.3717 54.527 12.3599 54.6845 11.2799C54.842 10.2 54.6852 9.09747 54.233 8.10416C53.7808 7.11085 53.0522 6.26872 52.1343 5.67836C51.2163 5.08799 50.1478 4.77435 49.0564 4.7749ZM47.0136 10.4571C47.0136 9.915 47.2289 9.39508 47.6123 9.01174C47.9956 8.62839 48.5155 8.41303 49.0577 8.41303C49.5998 8.41303 50.1197 8.62839 50.5031 9.01174C50.8864 9.39508 51.1018 9.915 51.1018 10.4571C51.1018 10.9993 50.8864 11.5192 50.5031 11.9025C50.1197 12.2859 49.5998 12.5012 49.0577 12.5012C48.5155 12.5012 47.9956 12.2859 47.6123 11.9025C47.2289 11.5192 47.0136 10.9993 47.0136 10.4571ZM51.8248 30.4735C50.6844 28.3312 48.9958 26.4144 46.9141 24.8107C47.2659 24.3855 47.706 24.0421 48.204 23.8043C48.7019 23.5664 49.2457 23.4399 49.7975 23.4335C50.3492 23.4271 50.8958 23.541 51.3991 23.7672C51.9024 23.9935 52.3504 24.3266 52.712 24.7435C53.0735 25.1604 53.3399 25.6511 53.4926 26.1813C53.6453 26.7116 53.6807 27.2688 53.5962 27.8141C53.5118 28.3594 53.3096 28.8798 53.0037 29.3391C52.6977 29.7984 52.2954 30.1855 51.8248 30.4735ZM12.5732 24.8107C12.2216 24.3849 11.7814 24.0408 11.2833 23.8024C10.7852 23.5641 10.241 23.4372 9.68885 23.4306C9.13666 23.4239 8.58967 23.5378 8.08596 23.7641C7.58225 23.9905 7.13394 24.3239 6.77225 24.7412C6.41056 25.1585 6.14418 25.6497 5.99166 26.1804C5.83914 26.7112 5.80415 27.2688 5.88913 27.8144C5.97411 28.3601 6.17701 28.8806 6.4837 29.3399C6.79039 29.7991 7.19351 30.186 7.66497 30.4735C8.8053 28.3312 10.4915 26.4144 12.5732 24.8107ZM38.3252 36.7963C39.2567 36.7963 40.1499 36.4263 40.8086 35.7677C41.4672 35.109 41.8372 34.2157 41.8372 33.2843C41.8372 32.3529 41.4672 31.4596 40.8086 30.801C40.1499 30.1424 39.2567 29.7723 38.3252 29.7723C37.3941 29.7723 36.5011 30.1422 35.8428 30.8006C35.1844 31.459 34.8145 32.352 34.8145 33.2831C34.8145 34.2142 35.1844 35.1072 35.8428 35.7656C36.5011 36.424 37.3941 36.7939 38.3252 36.7939V36.7963ZM24.6607 33.2831C24.6607 34.2145 24.2907 35.1078 23.6321 35.7664C22.9735 36.4251 22.0802 36.7951 21.1487 36.7951C20.2173 36.7951 19.324 36.4251 18.6654 35.7664C18.0068 35.1078 17.6368 34.2145 17.6368 33.2831C17.6368 32.3517 18.0068 31.4584 18.6654 30.7998C19.324 30.1411 20.2173 29.7711 21.1487 29.7711C22.0802 29.7711 22.9735 30.1411 23.6321 30.7998C24.2907 31.4584 24.6607 32.3517 24.6607 33.2831ZM22.101 40.8748C21.6935 40.635 21.2087 40.5633 20.7492 40.6749C20.2897 40.7864 19.8917 41.0724 19.6394 41.4722C19.3871 41.8721 19.3004 42.3545 19.3976 42.8172C19.4948 43.2799 19.7682 43.6866 20.16 43.9512L20.9971 44.4802C23.6126 46.1298 26.6417 47.0053 29.734 47.0053C32.8262 47.0053 35.8553 46.1298 38.4708 44.4802L39.3079 43.9537C39.5102 43.8262 39.6854 43.6602 39.8236 43.465C39.9617 43.2698 40.0601 43.0494 40.113 42.8162C40.166 42.583 40.1725 42.3417 40.1321 42.106C40.0918 41.8703 40.0055 41.6448 39.878 41.4425C39.7506 41.2402 39.5845 41.065 39.3894 40.9268C39.1942 40.7887 38.9737 40.6903 38.7405 40.6374C38.5073 40.5844 38.266 40.5779 38.0303 40.6182C37.7946 40.6586 37.5692 40.7449 37.3669 40.8723L36.5298 41.4013C34.4954 42.6846 32.1393 43.3656 29.734 43.3656C27.3286 43.3656 24.9725 42.6846 22.9381 41.4013L22.101 40.8748Z" fill="white"/>
</g>
</svg>
