<svg width="60" height="59" viewBox="0 0 60 59" fill="none" xmlns="http://www.w3.org/2000/svg">
<g id="gg:twitter">
<path id="Vector" fill-rule="evenodd" clip-rule="evenodd" d="M20.2682 7.80786C21.5552 7.80786 22.7894 8.3191 23.6994 9.22911C24.6094 10.1391 25.1207 11.3734 25.1207 12.6603V19.939H39.6781C40.965 19.939 42.1993 20.4502 43.1093 21.3603C44.0193 22.2703 44.5305 23.5045 44.5305 24.7915C44.5305 26.0784 44.0193 27.3127 43.1093 28.2227C42.1993 29.1327 40.965 29.6439 39.6781 29.6439H25.1207V34.4964C25.1207 36.4268 25.8875 38.2782 27.2526 39.6432C28.6176 41.0082 30.4689 41.7751 32.3994 41.7751H39.6781C40.965 41.7751 42.1993 42.2863 43.1093 43.1963C44.0193 44.1063 44.5305 45.3406 44.5305 46.6275C44.5305 47.9145 44.0193 49.1487 43.1093 50.0587C42.1993 50.9688 40.965 51.48 39.6781 51.48H32.3994C27.895 51.48 23.5752 49.6907 20.3902 46.5056C17.2051 43.3206 15.4158 39.0007 15.4158 34.4964V12.6603C15.4158 11.3734 15.927 10.1391 16.837 9.22911C17.747 8.3191 18.9813 7.80786 20.2682 7.80786Z" fill="white"/>
</g>
</svg>
