<svg width="676" height="431" viewBox="0 0 676 431" fill="none" xmlns="http://www.w3.org/2000/svg">
<path d="M37.1736 8.41669V402.597" stroke="#CCC6D0"/>
<path d="M202.701 8.41669V402.597" stroke="#CCC6D0"/>
<path d="M369.632 8.41669V402.597" stroke="#CCC6D0"/>
<path d="M535.16 8.41669V402.597" stroke="#CCC6D0"/>
<path d="M37.875 403.299H701.389" stroke="#CCC6D0"/>
<path d="M37.875 305.104H701.389" stroke="#CCC6D0"/>
<path d="M37.875 206.91H701.389" stroke="#CCC6D0"/>
<path d="M37.875 107.312H701.389" stroke="#CCC6D0"/>
<path d="M37.875 7.71527H701.389" stroke="#CCC6D0"/>
<path d="M37.875 403.299H701.389" stroke="#CCC6D0"/>
<path d="M37.1736 8.41669V402.597" stroke="#CCC6D0"/>
<path d="M31.8203 415.71V422.819H30.8926V415.71H31.8203ZM34.1055 415.71V416.482H28.6123V415.71H34.1055ZM36.7275 422.917C36.3597 422.917 36.026 422.855 35.7266 422.732C35.4303 422.605 35.1748 422.427 34.96 422.199C34.7484 421.971 34.5856 421.701 34.4717 421.389C34.3577 421.076 34.3008 420.734 34.3008 420.363V420.158C34.3008 419.729 34.3643 419.346 34.4912 419.011C34.6182 418.672 34.7907 418.386 35.0088 418.151C35.2269 417.917 35.4743 417.74 35.751 417.619C36.0277 417.499 36.3141 417.439 36.6103 417.439C36.988 417.439 37.3135 417.504 37.5869 417.634C37.8636 417.764 38.0898 417.946 38.2656 418.181C38.4414 418.412 38.5716 418.685 38.6562 419.001C38.7409 419.314 38.7832 419.655 38.7832 420.026V420.432H34.8379V419.694H37.8799V419.626C37.8669 419.392 37.818 419.164 37.7334 418.943C37.652 418.721 37.5218 418.539 37.3428 418.396C37.1637 418.252 36.9196 418.181 36.6103 418.181C36.4053 418.181 36.2165 418.225 36.0439 418.313C35.8714 418.397 35.7233 418.524 35.5996 418.693C35.4759 418.863 35.3799 419.069 35.3115 419.314C35.2432 419.558 35.209 419.839 35.209 420.158V420.363C35.209 420.614 35.2432 420.85 35.3115 421.071C35.3831 421.29 35.4857 421.482 35.6191 421.648C35.7559 421.814 35.9202 421.944 36.1123 422.038C36.3076 422.133 36.529 422.18 36.7764 422.18C37.0954 422.18 37.3656 422.115 37.5869 421.984C37.8083 421.854 38.002 421.68 38.168 421.462L38.7148 421.897C38.6009 422.069 38.4561 422.234 38.2803 422.39C38.1045 422.546 37.888 422.673 37.6309 422.771C37.377 422.868 37.0758 422.917 36.7275 422.917ZM40.4482 417.536L41.6055 419.46L42.7773 417.536H43.8369L42.1084 420.144L43.8906 422.819H42.8457L41.625 420.837L40.4043 422.819H39.3545L41.1318 420.144L39.4082 417.536H40.4482ZM47.0107 417.536V418.23H44.1543V417.536H47.0107ZM45.1211 416.252H46.0244V421.511C46.0244 421.69 46.0521 421.825 46.1074 421.916C46.1628 422.007 46.2344 422.068 46.3223 422.097C46.4102 422.126 46.5046 422.141 46.6055 422.141C46.6803 422.141 46.7585 422.134 46.8398 422.121C46.9245 422.105 46.988 422.092 47.0303 422.082L47.0352 422.819C46.9635 422.842 46.8691 422.863 46.752 422.883C46.638 422.906 46.4997 422.917 46.3369 422.917C46.1156 422.917 45.9121 422.873 45.7266 422.785C45.541 422.697 45.3929 422.551 45.2822 422.346C45.1748 422.137 45.1211 421.858 45.1211 421.506V416.252Z" fill="#A199A6"/>
<path d="M197.699 415.71V422.819H196.771V415.71H197.699ZM199.984 415.71V416.482H194.491V415.71H199.984ZM202.606 422.917C202.238 422.917 201.904 422.855 201.605 422.732C201.309 422.605 201.053 422.427 200.838 422.199C200.627 421.971 200.464 421.701 200.35 421.389C200.236 421.076 200.179 420.734 200.179 420.363V420.158C200.179 419.729 200.243 419.346 200.37 419.011C200.497 418.672 200.669 418.386 200.887 418.151C201.105 417.917 201.353 417.74 201.629 417.619C201.906 417.499 202.193 417.439 202.489 417.439C202.866 417.439 203.192 417.504 203.465 417.634C203.742 417.764 203.968 417.946 204.144 418.181C204.32 418.412 204.45 418.685 204.535 419.001C204.619 419.314 204.662 419.655 204.662 420.026V420.432H200.716V419.694H203.758V419.626C203.745 419.392 203.696 419.164 203.612 418.943C203.53 418.721 203.4 418.539 203.221 418.396C203.042 418.252 202.798 418.181 202.489 418.181C202.284 418.181 202.095 418.225 201.922 418.313C201.75 418.397 201.602 418.524 201.478 418.693C201.354 418.863 201.258 419.069 201.19 419.314C201.122 419.558 201.087 419.839 201.087 420.158V420.363C201.087 420.614 201.122 420.85 201.19 421.071C201.262 421.29 201.364 421.482 201.498 421.648C201.634 421.814 201.799 421.944 201.991 422.038C202.186 422.133 202.407 422.18 202.655 422.18C202.974 422.18 203.244 422.115 203.465 421.984C203.687 421.854 203.88 421.68 204.046 421.462L204.593 421.897C204.479 422.069 204.335 422.234 204.159 422.39C203.983 422.546 203.766 422.673 203.509 422.771C203.255 422.868 202.954 422.917 202.606 422.917ZM206.327 417.536L207.484 419.46L208.656 417.536H209.715L207.987 420.144L209.769 422.819H208.724L207.503 420.837L206.283 422.819H205.233L207.01 420.144L205.287 417.536H206.327ZM212.889 417.536V418.23H210.033V417.536H212.889ZM211 416.252H211.903V421.511C211.903 421.69 211.931 421.825 211.986 421.916C212.041 422.007 212.113 422.068 212.201 422.097C212.289 422.126 212.383 422.141 212.484 422.141C212.559 422.141 212.637 422.134 212.718 422.121C212.803 422.105 212.866 422.092 212.909 422.082L212.914 422.819C212.842 422.842 212.748 422.863 212.63 422.883C212.516 422.906 212.378 422.917 212.215 422.917C211.994 422.917 211.791 422.873 211.605 422.785C211.419 422.697 211.271 422.551 211.161 422.346C211.053 422.137 211 421.858 211 421.506V416.252Z" fill="#A199A6"/>
<path d="M363.577 415.71V422.819H362.65V415.71H363.577ZM365.862 415.71V416.482H360.369V415.71H365.862ZM368.484 422.917C368.117 422.917 367.783 422.855 367.483 422.732C367.187 422.605 366.932 422.427 366.717 422.199C366.505 421.971 366.343 421.701 366.229 421.389C366.115 421.076 366.058 420.734 366.058 420.363V420.158C366.058 419.729 366.121 419.346 366.248 419.011C366.375 418.672 366.548 418.386 366.766 418.151C366.984 417.917 367.231 417.74 367.508 417.619C367.785 417.499 368.071 417.439 368.367 417.439C368.745 417.439 369.07 417.504 369.344 417.634C369.621 417.764 369.847 417.946 370.023 418.181C370.198 418.412 370.329 418.685 370.413 419.001C370.498 419.314 370.54 419.655 370.54 420.026V420.432H366.595V419.694H369.637V419.626C369.624 419.392 369.575 419.164 369.49 418.943C369.409 418.721 369.279 418.539 369.1 418.396C368.921 418.252 368.677 418.181 368.367 418.181C368.162 418.181 367.973 418.225 367.801 418.313C367.628 418.397 367.48 418.524 367.357 418.693C367.233 418.863 367.137 419.069 367.068 419.314C367 419.558 366.966 419.839 366.966 420.158V420.363C366.966 420.614 367 420.85 367.068 421.071C367.14 421.29 367.243 421.482 367.376 421.648C367.513 421.814 367.677 421.944 367.869 422.038C368.065 422.133 368.286 422.18 368.533 422.18C368.852 422.18 369.122 422.115 369.344 421.984C369.565 421.854 369.759 421.68 369.925 421.462L370.472 421.897C370.358 422.069 370.213 422.234 370.037 422.39C369.861 422.546 369.645 422.673 369.388 422.771C369.134 422.868 368.833 422.917 368.484 422.917ZM372.205 417.536L373.362 419.46L374.534 417.536H375.594L373.865 420.144L375.648 422.819H374.603L373.382 420.837L372.161 422.819H371.111L372.889 420.144L371.165 417.536H372.205ZM378.768 417.536V418.23H375.911V417.536H378.768ZM376.878 416.252H377.781V421.511C377.781 421.69 377.809 421.825 377.864 421.916C377.92 422.007 377.991 422.068 378.079 422.097C378.167 422.126 378.261 422.141 378.362 422.141C378.437 422.141 378.515 422.134 378.597 422.121C378.681 422.105 378.745 422.092 378.787 422.082L378.792 422.819C378.72 422.842 378.626 422.863 378.509 422.883C378.395 422.906 378.257 422.917 378.094 422.917C377.872 422.917 377.669 422.873 377.483 422.785C377.298 422.697 377.15 422.551 377.039 422.346C376.932 422.137 376.878 421.858 376.878 421.506V416.252Z" fill="#A199A6"/>
<path d="M529.456 415.71V422.819H528.528V415.71H529.456ZM531.741 415.71V416.482H526.248V415.71H531.741ZM534.363 422.917C533.995 422.917 533.661 422.855 533.362 422.732C533.066 422.605 532.81 422.427 532.595 422.199C532.384 421.971 532.221 421.701 532.107 421.389C531.993 421.076 531.936 420.734 531.936 420.363V420.158C531.936 419.729 532 419.346 532.127 419.011C532.254 418.672 532.426 418.386 532.644 418.151C532.862 417.917 533.11 417.74 533.386 417.619C533.663 417.499 533.95 417.439 534.246 417.439C534.623 417.439 534.949 417.504 535.222 417.634C535.499 417.764 535.725 417.946 535.901 418.181C536.077 418.412 536.207 418.685 536.292 419.001C536.376 419.314 536.419 419.655 536.419 420.026V420.432H532.473V419.694H535.515V419.626C535.502 419.392 535.453 419.164 535.369 418.943C535.287 418.721 535.157 418.539 534.978 418.396C534.799 418.252 534.555 418.181 534.246 418.181C534.041 418.181 533.852 418.225 533.679 418.313C533.507 418.397 533.359 418.524 533.235 418.693C533.111 418.863 533.015 419.069 532.947 419.314C532.879 419.558 532.844 419.839 532.844 420.158V420.363C532.844 420.614 532.879 420.85 532.947 421.071C533.019 421.29 533.121 421.482 533.255 421.648C533.391 421.814 533.556 421.944 533.748 422.038C533.943 422.133 534.164 422.18 534.412 422.18C534.731 422.18 535.001 422.115 535.222 421.984C535.444 421.854 535.637 421.68 535.803 421.462L536.35 421.897C536.236 422.069 536.091 422.234 535.916 422.39C535.74 422.546 535.523 422.673 535.266 422.771C535.012 422.868 534.711 422.917 534.363 422.917ZM538.084 417.536L539.241 419.46L540.413 417.536H541.472L539.744 420.144L541.526 422.819H540.481L539.26 420.837L538.04 422.819H536.99L538.767 420.144L537.044 417.536H538.084ZM544.646 417.536V418.23H541.79V417.536H544.646ZM542.757 416.252H543.66V421.511C543.66 421.69 543.688 421.825 543.743 421.916C543.798 422.007 543.87 422.068 543.958 422.097C544.046 422.126 544.14 422.141 544.241 422.141C544.316 422.141 544.394 422.134 544.475 422.121C544.56 422.105 544.623 422.092 544.666 422.082L544.671 422.819C544.599 422.842 544.505 422.863 544.387 422.883C544.273 422.906 544.135 422.917 543.972 422.917C543.751 422.917 543.548 422.873 543.362 422.785C543.176 422.697 543.028 422.551 542.918 422.346C542.81 422.137 542.757 421.858 542.757 421.506V416.252Z" fill="#A199A6"/>
<path d="M17.8462 402.438V403.181H13.1929V402.531L15.522 399.938C15.8085 399.619 16.0298 399.349 16.1861 399.128C16.3456 398.903 16.4563 398.703 16.5181 398.527C16.5832 398.348 16.6158 398.166 16.6158 397.98C16.6158 397.746 16.5669 397.534 16.4693 397.346C16.3749 397.154 16.2349 397.001 16.0494 396.887C15.8638 396.773 15.6392 396.716 15.3755 396.716C15.0598 396.716 14.7961 396.778 14.5845 396.901C14.3762 397.022 14.2199 397.191 14.1158 397.409C14.0116 397.627 13.9595 397.878 13.9595 398.161H13.0562C13.0562 397.761 13.1441 397.394 13.3199 397.062C13.4957 396.73 13.7561 396.467 14.1011 396.271C14.4462 396.073 14.871 395.974 15.3755 395.974C15.8248 395.974 16.2089 396.053 16.5279 396.213C16.8469 396.369 17.091 396.59 17.2603 396.877C17.4328 397.16 17.5191 397.492 17.5191 397.873C17.5191 398.081 17.4833 398.293 17.4117 398.508C17.3433 398.719 17.2473 398.931 17.1236 399.142C17.0031 399.354 16.8615 399.562 16.6988 399.767C16.5393 399.973 16.3684 400.174 16.1861 400.373L14.2818 402.438H17.8462ZM23.2759 399.059V400.143C23.2759 400.726 23.2238 401.218 23.1197 401.618C23.0155 402.018 22.8658 402.341 22.6705 402.585C22.4752 402.829 22.2391 403.006 21.9625 403.117C21.689 403.224 21.3798 403.278 21.0347 403.278C20.7613 403.278 20.509 403.244 20.2779 403.176C20.0468 403.107 19.8384 402.998 19.6529 402.849C19.4706 402.696 19.3143 402.497 19.1841 402.253C19.0539 402.009 18.9546 401.712 18.8863 401.364C18.8179 401.016 18.7837 400.609 18.7837 400.143V399.059C18.7837 398.477 18.8358 397.988 18.94 397.595C19.0474 397.201 19.1988 396.885 19.3941 396.647C19.5894 396.406 19.8238 396.234 20.0972 396.13C20.3739 396.026 20.6832 395.974 21.025 395.974C21.3016 395.974 21.5556 396.008 21.7867 396.076C22.021 396.141 22.2294 396.247 22.4117 396.393C22.594 396.537 22.7486 396.729 22.8755 396.97C23.0057 397.207 23.105 397.499 23.1734 397.844C23.2418 398.189 23.2759 398.594 23.2759 399.059ZM22.3677 400.29V398.908C22.3677 398.589 22.3482 398.309 22.3091 398.068C22.2733 397.824 22.2196 397.616 22.148 397.443C22.0764 397.271 21.9852 397.131 21.8746 397.023C21.7671 396.916 21.6418 396.838 21.4986 396.789C21.3586 396.737 21.2007 396.711 21.025 396.711C20.8101 396.711 20.6197 396.752 20.4537 396.833C20.2877 396.911 20.1477 397.036 20.0337 397.209C19.9231 397.381 19.8384 397.608 19.7798 397.888C19.7212 398.168 19.6919 398.508 19.6919 398.908V400.29C19.6919 400.609 19.7099 400.891 19.7457 401.135C19.7847 401.379 19.8417 401.59 19.9166 401.769C19.9914 401.945 20.0826 402.09 20.19 402.204C20.2974 402.318 20.4211 402.403 20.5611 402.458C20.7043 402.51 20.8622 402.536 21.0347 402.536C21.2561 402.536 21.4498 402.494 21.6158 402.409C21.7818 402.324 21.9201 402.193 22.0308 402.014C22.1447 401.831 22.2294 401.599 22.2847 401.315C22.3401 401.029 22.3677 400.687 22.3677 400.29Z" fill="#A199A6"/>
<path d="M17.9927 302.594V303.336H12.856V302.803L16.0396 297.877H16.7769L15.9859 299.302L13.8814 302.594H17.9927ZM17.0015 297.877V304.986H16.0982V297.877H17.0015ZM23.2759 300.865V301.949C23.2759 302.532 23.2238 303.023 23.1197 303.424C23.0155 303.824 22.8658 304.146 22.6705 304.39C22.4752 304.635 22.2391 304.812 21.9625 304.923C21.689 305.03 21.3798 305.084 21.0347 305.084C20.7613 305.084 20.509 305.05 20.2779 304.981C20.0468 304.913 19.8384 304.804 19.6529 304.654C19.4706 304.501 19.3143 304.302 19.1841 304.058C19.0539 303.814 18.9546 303.518 18.8863 303.17C18.8179 302.821 18.7837 302.414 18.7837 301.949V300.865C18.7837 300.282 18.8358 299.794 18.94 299.4C19.0474 299.006 19.1988 298.691 19.3941 298.453C19.5894 298.212 19.8238 298.039 20.0972 297.935C20.3739 297.831 20.6832 297.779 21.025 297.779C21.3016 297.779 21.5556 297.813 21.7867 297.882C22.021 297.947 22.2294 298.052 22.4117 298.199C22.594 298.342 22.7486 298.534 22.8755 298.775C23.0057 299.013 23.105 299.304 23.1734 299.649C23.2418 299.994 23.2759 300.399 23.2759 300.865ZM22.3677 302.095V300.714C22.3677 300.395 22.3482 300.115 22.3091 299.874C22.2733 299.63 22.2196 299.421 22.148 299.249C22.0764 299.076 21.9852 298.936 21.8746 298.829C21.7671 298.721 21.6418 298.643 21.4986 298.594C21.3586 298.542 21.2007 298.516 21.025 298.516C20.8101 298.516 20.6197 298.557 20.4537 298.638C20.2877 298.717 20.1477 298.842 20.0337 299.014C19.9231 299.187 19.8384 299.413 19.7798 299.693C19.7212 299.973 19.6919 300.313 19.6919 300.714V302.095C19.6919 302.414 19.7099 302.696 19.7457 302.94C19.7847 303.184 19.8417 303.396 19.9166 303.575C19.9914 303.751 20.0826 303.896 20.19 304.01C20.2974 304.123 20.4211 304.208 20.5611 304.263C20.7043 304.316 20.8622 304.342 21.0347 304.342C21.2561 304.342 21.4498 304.299 21.6158 304.215C21.7818 304.13 21.9201 303.998 22.0308 303.819C22.1447 303.637 22.2294 303.404 22.2847 303.121C22.3401 302.834 22.3677 302.493 22.3677 302.095Z" fill="#A199A6"/>
<path d="M16.6548 199.672H16.733V200.439H16.6548C16.1763 200.439 15.7759 200.517 15.4537 200.673C15.1314 200.826 14.8759 201.033 14.6871 201.294C14.4983 201.551 14.3615 201.84 14.2769 202.163C14.1955 202.485 14.1548 202.812 14.1548 203.144V204.189C14.1548 204.505 14.1923 204.785 14.2671 205.029C14.342 205.27 14.4446 205.473 14.5748 205.639C14.705 205.805 14.8515 205.931 15.0142 206.015C15.1802 206.1 15.3528 206.142 15.5318 206.142C15.7401 206.142 15.9257 206.103 16.0884 206.025C16.2512 205.944 16.3879 205.831 16.4986 205.688C16.6125 205.542 16.6988 205.369 16.7574 205.171C16.816 204.972 16.8453 204.754 16.8453 204.516C16.8453 204.305 16.8192 204.101 16.7671 203.906C16.7151 203.707 16.6353 203.532 16.5279 203.379C16.4205 203.222 16.2854 203.1 16.1226 203.012C15.9631 202.921 15.7727 202.876 15.5513 202.876C15.3007 202.876 15.0663 202.937 14.8482 203.061C14.6334 203.182 14.4559 203.341 14.316 203.54C14.1793 203.735 14.1011 203.948 14.0816 204.179L13.6031 204.174C13.6487 203.81 13.7333 203.499 13.857 203.242C13.9839 202.981 14.1402 202.77 14.3257 202.607C14.5145 202.441 14.7245 202.321 14.9556 202.246C15.19 202.168 15.4374 202.129 15.6978 202.129C16.0526 202.129 16.3586 202.195 16.6158 202.329C16.8729 202.462 17.0845 202.641 17.2505 202.866C17.4166 203.087 17.5386 203.338 17.6168 203.618C17.6981 203.894 17.7388 204.179 17.7388 204.472C17.7388 204.808 17.6916 205.122 17.5972 205.415C17.5028 205.708 17.3612 205.965 17.1724 206.186C16.9869 206.408 16.7574 206.58 16.4839 206.704C16.2105 206.827 15.8931 206.889 15.5318 206.889C15.1477 206.889 14.8124 206.811 14.5259 206.655C14.2395 206.495 14.0018 206.284 13.813 206.02C13.6242 205.756 13.4826 205.464 13.3882 205.141C13.2938 204.819 13.2466 204.492 13.2466 204.16V203.735C13.2466 203.234 13.2971 202.742 13.398 202.26C13.4989 201.779 13.6731 201.342 13.9205 200.952C14.1711 200.561 14.5178 200.25 14.9605 200.019C15.4032 199.788 15.968 199.672 16.6548 199.672ZM23.2759 202.671V203.755C23.2759 204.337 23.2238 204.829 23.1197 205.229C23.0155 205.63 22.8658 205.952 22.6705 206.196C22.4752 206.44 22.2391 206.617 21.9625 206.728C21.689 206.836 21.3798 206.889 21.0347 206.889C20.7613 206.889 20.509 206.855 20.2779 206.787C20.0468 206.718 19.8384 206.609 19.6529 206.46C19.4706 206.307 19.3143 206.108 19.1841 205.864C19.0539 205.62 18.9546 205.324 18.8863 204.975C18.8179 204.627 18.7837 204.22 18.7837 203.755V202.671C18.7837 202.088 18.8358 201.6 18.94 201.206C19.0474 200.812 19.1988 200.496 19.3941 200.258C19.5894 200.018 19.8238 199.845 20.0972 199.741C20.3739 199.637 20.6832 199.585 21.025 199.585C21.3016 199.585 21.5556 199.619 21.7867 199.687C22.021 199.752 22.2294 199.858 22.4117 200.005C22.594 200.148 22.7486 200.34 22.8755 200.581C23.0057 200.818 23.105 201.11 23.1734 201.455C23.2418 201.8 23.2759 202.205 23.2759 202.671ZM22.3677 203.901V202.519C22.3677 202.2 22.3482 201.92 22.3091 201.679C22.2733 201.435 22.2196 201.227 22.148 201.054C22.0764 200.882 21.9852 200.742 21.8746 200.634C21.7671 200.527 21.6418 200.449 21.4986 200.4C21.3586 200.348 21.2007 200.322 21.025 200.322C20.8101 200.322 20.6197 200.363 20.4537 200.444C20.2877 200.522 20.1477 200.647 20.0337 200.82C19.9231 200.992 19.8384 201.219 19.7798 201.499C19.7212 201.779 19.6919 202.119 19.6919 202.519V203.901C19.6919 204.22 19.7099 204.502 19.7457 204.746C19.7847 204.99 19.8417 205.201 19.9166 205.38C19.9914 205.556 20.0826 205.701 20.19 205.815C20.2974 205.929 20.4211 206.014 20.5611 206.069C20.7043 206.121 20.8622 206.147 21.0347 206.147C21.2561 206.147 21.4498 206.105 21.6158 206.02C21.7818 205.936 21.9201 205.804 22.0308 205.625C22.1447 205.442 22.2294 205.21 22.2847 204.926C22.3401 204.64 22.3677 204.298 22.3677 203.901Z" fill="#A199A6"/>
<path d="M17.6705 106.673C17.6705 107.106 17.5696 107.474 17.3677 107.777C17.1692 108.076 16.899 108.304 16.5572 108.461C16.2186 108.617 15.8362 108.695 15.4097 108.695C14.9833 108.695 14.5992 108.617 14.2574 108.461C13.9156 108.304 13.6454 108.076 13.4468 107.777C13.2483 107.474 13.149 107.106 13.149 106.673C13.149 106.39 13.2027 106.131 13.3101 105.897C13.4208 105.659 13.5754 105.453 13.774 105.277C13.9758 105.101 14.2134 104.966 14.4869 104.872C14.7636 104.774 15.0679 104.725 15.4 104.725C15.8362 104.725 16.2252 104.81 16.5669 104.979C16.9087 105.145 17.1773 105.375 17.3726 105.668C17.5712 105.961 17.6705 106.296 17.6705 106.673ZM16.7623 106.654C16.7623 106.39 16.7053 106.157 16.5914 105.956C16.4774 105.751 16.3179 105.591 16.1128 105.477C15.9078 105.363 15.6701 105.306 15.4 105.306C15.1233 105.306 14.884 105.363 14.6822 105.477C14.4836 105.591 14.329 105.751 14.2183 105.956C14.1076 106.157 14.0523 106.39 14.0523 106.654C14.0523 106.927 14.106 107.162 14.2134 107.357C14.3241 107.549 14.4804 107.697 14.6822 107.801C14.8873 107.902 15.1298 107.953 15.4097 107.953C15.6897 107.953 15.9306 107.902 16.1324 107.801C16.3342 107.697 16.4888 107.549 16.5962 107.357C16.7069 107.162 16.7623 106.927 16.7623 106.654ZM17.5044 103.338C17.5044 103.683 17.4133 103.994 17.231 104.271C17.0487 104.548 16.7997 104.766 16.4839 104.925C16.1682 105.085 15.8101 105.165 15.4097 105.165C15.0028 105.165 14.6399 105.085 14.3209 104.925C14.0051 104.766 13.7577 104.548 13.5787 104.271C13.3996 103.994 13.3101 103.683 13.3101 103.338C13.3101 102.925 13.3996 102.573 13.5787 102.284C13.761 101.994 14.01 101.773 14.3257 101.62C14.6415 101.467 15.0012 101.39 15.4048 101.39C15.8117 101.39 16.1731 101.467 16.4888 101.62C16.8046 101.773 17.052 101.994 17.231 102.284C17.4133 102.573 17.5044 102.925 17.5044 103.338ZM16.6011 103.353C16.6011 103.115 16.5507 102.905 16.4498 102.723C16.3488 102.541 16.2089 102.398 16.0298 102.294C15.8508 102.186 15.6425 102.132 15.4048 102.132C15.1672 102.132 14.9589 102.183 14.7798 102.284C14.6041 102.381 14.4657 102.521 14.3648 102.704C14.2671 102.886 14.2183 103.102 14.2183 103.353C14.2183 103.597 14.2671 103.81 14.3648 103.993C14.4657 104.175 14.6057 104.317 14.7847 104.418C14.9638 104.518 15.1721 104.569 15.4097 104.569C15.6474 104.569 15.8541 104.518 16.0298 104.418C16.2089 104.317 16.3488 104.175 16.4498 103.993C16.5507 103.81 16.6011 103.597 16.6011 103.353ZM23.2759 104.476V105.56C23.2759 106.143 23.2238 106.634 23.1197 107.035C23.0155 107.435 22.8658 107.757 22.6705 108.002C22.4752 108.246 22.2391 108.423 21.9625 108.534C21.689 108.641 21.3798 108.695 21.0347 108.695C20.7613 108.695 20.509 108.661 20.2779 108.592C20.0468 108.524 19.8384 108.415 19.6529 108.265C19.4706 108.112 19.3143 107.914 19.1841 107.669C19.0539 107.425 18.9546 107.129 18.8863 106.781C18.8179 106.433 18.7837 106.026 18.7837 105.56V104.476C18.7837 103.893 18.8358 103.405 18.94 103.011C19.0474 102.617 19.1988 102.302 19.3941 102.064C19.5894 101.823 19.8238 101.651 20.0972 101.546C20.3739 101.442 20.6832 101.39 21.025 101.39C21.3016 101.39 21.5556 101.424 21.7867 101.493C22.021 101.558 22.2294 101.664 22.4117 101.81C22.594 101.953 22.7486 102.145 22.8755 102.386C23.0057 102.624 23.105 102.915 23.1734 103.26C23.2418 103.605 23.2759 104.011 23.2759 104.476ZM22.3677 105.707V104.325C22.3677 104.006 22.3482 103.726 22.3091 103.485C22.2733 103.241 22.2196 103.032 22.148 102.86C22.0764 102.687 21.9852 102.547 21.8746 102.44C21.7671 102.333 21.6418 102.254 21.4986 102.206C21.3586 102.154 21.2007 102.128 21.025 102.128C20.8101 102.128 20.6197 102.168 20.4537 102.25C20.2877 102.328 20.1477 102.453 20.0337 102.626C19.9231 102.798 19.8384 103.024 19.7798 103.304C19.7212 103.584 19.6919 103.924 19.6919 104.325V105.707C19.6919 106.026 19.7099 106.307 19.7457 106.551C19.7847 106.795 19.8417 107.007 19.9166 107.186C19.9914 107.362 20.0826 107.507 20.19 107.621C20.2974 107.735 20.4211 107.819 20.5611 107.875C20.7043 107.927 20.8622 107.953 21.0347 107.953C21.2561 107.953 21.4498 107.91 21.6158 107.826C21.7818 107.741 21.9201 107.609 22.0308 107.43C22.1447 107.248 22.2294 107.015 22.2847 106.732C22.3401 106.446 22.3677 106.104 22.3677 105.707Z" fill="#A199A6"/>
<path d="M10.5318 1.85156V9H9.62847V2.97949L7.80718 3.64355V2.82812L10.3902 1.85156H10.5318ZM17.6509 4.87891V5.96289C17.6509 6.54557 17.5988 7.03711 17.4947 7.4375C17.3905 7.83789 17.2408 8.16016 17.0455 8.4043C16.8502 8.64844 16.6141 8.82585 16.3375 8.93652C16.064 9.04395 15.7548 9.09766 15.4097 9.09766C15.1363 9.09766 14.884 9.06348 14.6529 8.99512C14.4218 8.92676 14.2134 8.81771 14.0279 8.66797C13.8456 8.51497 13.6893 8.31641 13.5591 8.07227C13.4289 7.82812 13.3296 7.5319 13.2613 7.18359C13.1929 6.83529 13.1587 6.42839 13.1587 5.96289V4.87891C13.1587 4.29622 13.2108 3.80794 13.315 3.41406C13.4224 3.02018 13.5738 2.70443 13.7691 2.4668C13.9644 2.22591 14.1988 2.05339 14.4722 1.94922C14.7489 1.84505 15.0582 1.79297 15.4 1.79297C15.6766 1.79297 15.9306 1.82715 16.1617 1.89551C16.396 1.96061 16.6044 2.06641 16.7867 2.21289C16.969 2.35612 17.1236 2.54818 17.2505 2.78906C17.3808 3.02669 17.48 3.31803 17.5484 3.66309C17.6168 4.00814 17.6509 4.41341 17.6509 4.87891ZM16.7427 6.10938V4.72754C16.7427 4.40853 16.7232 4.12858 16.6841 3.8877C16.6483 3.64355 16.5946 3.43522 16.523 3.2627C16.4514 3.09017 16.3602 2.9502 16.2496 2.84277C16.1421 2.73535 16.0168 2.65723 15.8736 2.6084C15.7336 2.55632 15.5757 2.53027 15.4 2.53027C15.1851 2.53027 14.9947 2.57096 14.8287 2.65234C14.6627 2.73047 14.5227 2.85579 14.4087 3.02832C14.2981 3.20085 14.2134 3.42708 14.1548 3.70703C14.0962 3.98698 14.0669 4.32715 14.0669 4.72754V6.10938C14.0669 6.42839 14.0849 6.70996 14.1207 6.9541C14.1597 7.19824 14.2167 7.40983 14.2916 7.58887C14.3664 7.76465 14.4576 7.90951 14.565 8.02344C14.6724 8.13737 14.7961 8.22201 14.9361 8.27734C15.0793 8.32943 15.2372 8.35547 15.4097 8.35547C15.6311 8.35547 15.8248 8.31315 15.9908 8.22852C16.1568 8.14388 16.2951 8.01204 16.4058 7.83301C16.5197 7.65072 16.6044 7.41797 16.6597 7.13477C16.7151 6.84831 16.7427 6.50651 16.7427 6.10938ZM23.2759 4.87891V5.96289C23.2759 6.54557 23.2238 7.03711 23.1197 7.4375C23.0155 7.83789 22.8658 8.16016 22.6705 8.4043C22.4752 8.64844 22.2391 8.82585 21.9625 8.93652C21.689 9.04395 21.3798 9.09766 21.0347 9.09766C20.7613 9.09766 20.509 9.06348 20.2779 8.99512C20.0468 8.92676 19.8384 8.81771 19.6529 8.66797C19.4706 8.51497 19.3143 8.31641 19.1841 8.07227C19.0539 7.82812 18.9546 7.5319 18.8863 7.18359C18.8179 6.83529 18.7837 6.42839 18.7837 5.96289V4.87891C18.7837 4.29622 18.8358 3.80794 18.94 3.41406C19.0474 3.02018 19.1988 2.70443 19.3941 2.4668C19.5894 2.22591 19.8238 2.05339 20.0972 1.94922C20.3739 1.84505 20.6832 1.79297 21.025 1.79297C21.3016 1.79297 21.5556 1.82715 21.7867 1.89551C22.021 1.96061 22.2294 2.06641 22.4117 2.21289C22.594 2.35612 22.7486 2.54818 22.8755 2.78906C23.0058 3.02669 23.105 3.31803 23.1734 3.66309C23.2418 4.00814 23.2759 4.41341 23.2759 4.87891ZM22.3677 6.10938V4.72754C22.3677 4.40853 22.3482 4.12858 22.3091 3.8877C22.2733 3.64355 22.2196 3.43522 22.148 3.2627C22.0764 3.09017 21.9852 2.9502 21.8746 2.84277C21.7671 2.73535 21.6418 2.65723 21.4986 2.6084C21.3586 2.55632 21.2007 2.53027 21.025 2.53027C20.8101 2.53027 20.6197 2.57096 20.4537 2.65234C20.2877 2.73047 20.1477 2.85579 20.0337 3.02832C19.9231 3.20085 19.8384 3.42708 19.7798 3.70703C19.7212 3.98698 19.6919 4.32715 19.6919 4.72754V6.10938C19.6919 6.42839 19.7099 6.70996 19.7457 6.9541C19.7847 7.19824 19.8417 7.40983 19.9166 7.58887C19.9914 7.76465 20.0826 7.90951 20.19 8.02344C20.2974 8.13737 20.4211 8.22201 20.5611 8.27734C20.7043 8.32943 20.8622 8.35547 21.0347 8.35547C21.2561 8.35547 21.4498 8.31315 21.6158 8.22852C21.7818 8.14388 21.9201 8.01204 22.0308 7.83301C22.1447 7.65072 22.2294 7.41797 22.2847 7.13477C22.3401 6.84831 22.3677 6.50651 22.3677 6.10938Z" fill="#A199A6"/>
<path d="M37.875 52.762C37.875 52.762 137.402 76.4129 203.753 126.671C270.105 176.929 303.281 256.75 369.632 304.052C435.983 351.354 469.159 363.179 535.51 363.179C601.862 363.179 701.389 180.871 701.389 180.871" stroke="#8200E9" stroke-width="2"/>
<path d="M37.875 151.307C37.875 151.307 137.402 57.6892 203.753 57.6892C270.105 57.6892 303.281 134.554 369.632 161.162C435.983 187.769 469.159 161.162 535.51 190.725C601.862 220.289 701.389 308.979 701.389 308.979" stroke="#23EDD5" stroke-width="2"/>
<path d="M37.875 58.9167C36.3871 58.9167 34.9601 58.3257 33.9078 57.2737C32.8556 56.2217 32.2643 54.7949 32.2639 53.307C32.2635 51.8191 32.8541 50.3919 33.9059 49.3394C34.9576 48.2869 36.3843 47.6952 37.8722 47.6945C39.3601 47.6937 40.7874 48.284 41.8402 49.3354C42.8929 50.3869 43.485 51.8134 43.4861 53.3014C43.4872 54.7893 42.8973 56.2167 41.8461 57.2698C40.7949 58.3228 39.3685 58.9152 37.8806 58.9167L37.875 58.9167Z" fill="#8200E9"/>
<path d="M203.403 131.861C201.915 131.861 200.488 131.27 199.436 130.218C198.383 129.166 197.792 127.739 197.792 126.251C197.791 124.763 198.382 123.336 199.434 122.284C200.485 121.231 201.912 120.64 203.4 120.639C204.888 120.638 206.315 121.228 207.368 122.28C208.421 123.331 209.013 124.758 209.014 126.246C209.015 127.734 208.425 129.161 207.374 130.214C206.323 131.267 204.896 131.86 203.408 131.861H203.403Z" fill="#8200E9"/>
<path d="M368.931 310.014C367.443 310.014 366.016 309.423 364.963 308.371C363.911 307.319 363.32 305.892 363.319 304.404C363.319 302.916 363.91 301.489 364.961 300.437C366.013 299.384 367.44 298.792 368.928 298.792C370.416 298.791 371.843 299.381 372.896 300.433C373.948 301.484 374.541 302.911 374.542 304.399C374.543 305.886 373.953 307.314 372.902 308.367C371.85 309.42 370.424 310.012 368.936 310.014H368.931Z" fill="#8200E9"/>
<path d="M534.458 368.93C532.97 368.93 531.543 368.339 530.491 367.288C529.439 366.236 528.848 364.809 528.847 363.321C528.847 361.833 529.437 360.406 530.489 359.353C531.541 358.301 532.968 357.709 534.456 357.708C535.943 357.708 537.371 358.298 538.424 359.349C539.476 360.401 540.068 361.827 540.069 363.315C540.071 364.803 539.481 366.231 538.429 367.284C537.378 368.337 535.952 368.929 534.464 368.93H534.458Z" fill="#8200E9"/>
<path d="M37.875 157.111C36.3871 157.111 34.9601 156.52 33.9078 155.468C32.8556 154.416 32.2643 152.989 32.2639 151.501C32.2635 150.014 32.8541 148.586 33.9059 147.534C34.9576 146.481 36.3843 145.89 37.8722 145.889C39.3601 145.888 40.7874 146.478 41.8402 147.53C42.8929 148.581 43.485 150.008 43.4861 151.496C43.4872 152.984 42.8973 154.411 41.8461 155.464C40.7949 156.517 39.3685 157.11 37.8806 157.111H37.875Z" fill="#23EDD5"/>
<path d="M203.403 63.125C201.915 63.125 200.488 62.534 199.436 61.482C198.383 60.43 197.792 59.0032 197.792 57.5153C197.791 56.0274 198.382 54.6002 199.434 53.5477C200.485 52.4952 201.912 51.9035 203.4 51.9028C204.888 51.902 206.315 52.4923 207.368 53.5438C208.421 54.5952 209.013 56.0218 209.014 57.5097C209.015 58.9976 208.425 60.425 207.374 61.4781C206.323 62.5311 204.896 63.1235 203.408 63.125L203.403 63.125Z" fill="#23EDD5"/>
<path d="M368.931 166.931C367.443 166.931 366.016 166.34 364.963 165.288C363.911 164.236 363.32 162.809 363.319 161.321C363.319 159.833 363.91 158.406 364.961 157.353C366.013 156.301 367.44 155.709 368.928 155.708C370.416 155.708 371.843 156.298 372.896 157.349C373.948 158.401 374.541 159.827 374.542 161.315C374.543 162.803 373.953 164.231 372.902 165.284C371.85 166.337 370.424 166.929 368.936 166.931H368.931Z" fill="#23EDD5"/>
<path d="M534.458 196.389C532.97 196.389 531.543 195.798 530.491 194.746C529.439 193.694 528.848 192.267 528.847 190.779C528.847 189.291 529.437 187.864 530.489 186.812C531.541 185.759 532.968 185.167 534.456 185.167C535.943 185.166 537.371 185.756 538.424 186.808C539.476 187.859 540.068 189.286 540.069 190.774C540.071 192.261 539.481 193.689 538.429 194.742C537.378 195.795 535.952 196.387 534.464 196.389H534.458Z" fill="#23EDD5"/>
</svg>
